# xmcd
#
# Track frame offsets:
#	150
#	16585
#	32230
#
# Disc length: 744 seconds
#
# Revision: 0
# Processed by: cddbd v1.5.1PL0 Copyright (c) Steve Scherf et al.
# Submitted via: audiograbber 1.82.02
#
DISCID=1602e603
DTITLE=R. Kelly - In the kitch
DYEAR=2005
DGENRE=R&B
TTITLE0=In the kitchen
TTITLE1=trapped in the closet
TTITLE2=in the kitchen - remix
EXTD=
EXTT0=
EXTT1=
EXTT2=
PLAYORDER=
